<svg xmlns="http://www.w3.org/2000/svg" xmlns:xlink="http://www.w3.org/1999/xlink" viewBox="0 0 319.64 159.75"><defs><style>.cls-1,.cls-2,.cls-3,.cls-4,.cls-5,.cls-6{stroke:#1e1e1e;stroke-linecap:round;stroke-linejoin:round;stroke-width:4px;}.cls-1{fill:url(#linear-gradient);}.cls-2{fill:url(#linear-gradient-2);}.cls-3{fill:url(#linear-gradient-3);}.cls-4{fill:url(#linear-gradient-4);}.cls-5{fill:url(#linear-gradient-5);}.cls-6{fill:url(#linear-gradient-6);}</style><linearGradient id="linear-gradient" x1="2" y1="37.94" x2="53.36" y2="37.94" gradientUnits="userSpaceOnUse"><stop offset="0" stop-color="#c6c6c6"/><stop offset="1" stop-color="#e6e6e6"/></linearGradient><linearGradient id="linear-gradient-2" x1="69.1" y1="38.12" x2="118.35" y2="38.12" xlink:href="#linear-gradient"/><linearGradient id="linear-gradient-3" x1="133.61" y1="37.97" x2="190.44" y2="37.97" gradientUnits="userSpaceOnUse"><stop offset="0" stop-color="#599146"/><stop offset="0.3" stop-color="#6da44b"/><stop offset="1" stop-color="#99cd55"/></linearGradient><linearGradient id="linear-gradient-4" x1="204.85" y1="38.12" x2="254.09" y2="38.12" xlink:href="#linear-gradient-3"/><linearGradient id="linear-gradient-5" x1="268.01" y1="37.9" x2="317.64" y2="37.9" xlink:href="#linear-gradient-3"/><linearGradient id="linear-gradient-6" x1="-555.58" y1="-542.07" x2="-496.53" y2="-542.07" gradientTransform="translate(701.89 -397.82) rotate(-90)" xlink:href="#linear-gradient-3"/></defs><title>sticker</title><g id="Layer_2" data-name="Layer 2"><g id="Layer_1-2" data-name="Layer 1"><path class="cls-1" d="M2,21.27c0-12.58,8.26-18.33,19-19,14.18-.89,22.65.58,29.76,3.17v14.5c-6.14-.67-16.7-1-23-1-5.18,0-7.1.19-7.1,4.22v1.06c0,3,.58,4.61,5.76,4.61h9c14.59,0,18,12.67,18,20.35v3.17c0,17.85-10,21.5-19.49,21.5-18,0-20.06,0-29.66-3.26V56.11c3.84.38,15.93,1.06,24.86,1.06,4.13,0,5.66-1.06,5.66-3.94V51.7c0-2.79-.86-4.22-5.09-4.22H21C2.77,47.47,2,31.63,2,27.12Z"/><path class="cls-2" d="M69.1,19.15C69.1,4.68,80.17,2.84,87,2.84c0,0,20.16,0,31.39,1.54V20H92.72c-5,0-5,2.78-5,5.38v4.22l25.82,1.06V46.13L87.73,47v4.22c0,5.09,3.17,5,6,5h24.67V71.76c-9.89,1.34-30.43,1.63-30.43,1.63-6.21.19-18.81-1.05-18.81-15.74Z"/><path class="cls-3" d="M133.61,2.84h32.92c19.1,0,23.9,15.55,23.9,35.42,0,24.57-7.87,34.85-23.9,34.85H133.61Zm31,54.52c5.47,0,7.2-5.66,7.2-19.2,0-17.37-2.69-19.58-7.2-19.58H152.24V57.36Z"/><path class="cls-4" d="M204.85,19.15c0-14.47,11.07-16.32,17.86-16.32,0,0,20.16,0,31.39,1.54V20H228.46c-5,0-5,2.78-5,5.38v4.22l25.82,1.06V46.13L223.47,47v4.22c0,5.09,3.17,5,6,5h24.67V71.76c-9.89,1.34-30.43,1.63-30.43,1.63-6.21.19-18.81-1.05-18.81-15.74Z"/><path class="cls-5" d="M292.3,2.07c13.82,0,17.09.77,25.34,3.84V20.4a136.54,136.54,0,0,0-19.58-1.63c-8.06,0-11.42-.38-11.42,19.2,0,15.74,1.82,19,11.52,19,10.08,0,19.49-.87,19.49-.87v14.5c-6,2.5-11.13,3.36-25.34,3.07C274.54,73.39,268,61.39,268,37.78,268,15.31,273.2,2.07,292.3,2.07Z"/><path class="cls-6" d="M187.38,111.75s-12.15-6.43-24.74.71a22.78,22.78,0,0,1,7.07,3.11,23.1,23.1,0,0,0-18.55,7.07c-8,8.07-21,22.89-37.74,18.53,0,0,13.75,13.9,27.82,12.32,0,0-1.68,2.64-4.14,3.1,0,0,31.05,6.74,44.66-12.2a34.24,34.24,0,0,1-.91,7.54s20.71-16.21,10.43-37.2c0,0-10.25,24.14-42.62,29.18,0,0,28.21-6.5,40.75-30.52a31,31,0,0,1,16.82-11.75l-.89-2.94S196.94,99.41,187.38,111.75Z"/></g></g></svg>